<svg xmlns="http://www.w3.org/2000/svg" fill="none" viewBox="0 0 804 389" height="389" width="804">
<path fill="#230937" d="M185.26 210.5C185.26 210.5 177.92 229.22 147.02 229.22C116.12 229.22 87.2595 207.63 87.2595 163.06C87.2595 118.49 117.94 95.83 147.02 95.83C176.1 95.83 186.56 116.96 186.56 116.96C194.74 101.51 219.64 82.19 219.64 82.19C153.18 20.16 45.6695 64.92 44.5495 162.1C43.6695 238.38 98.3495 272.45 148.42 272.45C188.97 272.45 219.64 244.63 219.64 244.63C206.91 237.46 195.79 224.95 185.26 210.51V210.5Z"></path>
<path fill="#230937" d="M334.97 215.09V156.85C334.97 116.33 307.47 95.59 274.46 95.59C241.45 95.59 216.55 118.42 216.55 118.42C226.95 122.76 234.76 131.36 241.52 141.67C241.52 141.67 253.1 129.18 269.95 129.18C286.8 129.18 297.48 146.63 297.48 162.43V172C289.28 162.13 279.96 157.18 263.65 156.06C244.16 154.73 218.02 171.32 218.02 198.79C218.02 230.62 238.7 246.11 263.84 246.11C288.98 246.11 296.83 224.96 296.91 224.77C295.57 240.01 292.37 243.97 292.37 243.97H345.66C345.66 243.97 334.97 234.78 334.97 215.08V215.09ZM273.08 223.95C259.38 223.95 247.24 214.17 247.24 200.33C247.24 190.65 254.83 177.1 272.85 177.1C290.87 177.1 297.49 195.86 297.49 195.86V210.29C297.49 210.29 289.3 223.95 273.07 223.95H273.08Z"></path>
<path fill="#230937" d="M479.13 209.85V140.36C479.13 116.13 459.49 96.49 435.26 96.49H432.84C417.26 96.49 403.22 108.95 399.34 126.01C399.67 105.46 403.03 97.53 403.03 97.53H355.39C355.39 97.53 363.85 113.41 363.85 127.5V217.27C363.85 234.18 355.39 243.98 355.39 243.98H407.32C407.32 243.98 400.49 234.78 400.49 212.23C400.49 197.99 400.02 177.82 399.67 159.11C399.67 159.11 405.39 132.11 424.68 132.11C436.55 132.11 442.34 140.58 442.34 156V220.98C442.34 238.19 435.22 243.98 435.22 243.98H489.23C489.23 243.98 479.14 234.78 479.14 209.85H479.13Z"></path>
<path fill="#230937" d="M633.55 243.97C633.55 243.97 619.3 235.67 619.3 197V94.34C619.3 75.22 619.86 58.02 619.86 58.02C605.08 58.49 592.56 56.77 581.81 53.31C581.81 53.31 582.47 86.31 583.14 122.64C578.34 117.26 578.14 98.14 554.83 98.14C531.52 98.14 496.26 119.85 496.26 176.03C496.26 232.21 535.1 246.15 554.03 246.15C569.02 246.15 580.01 235.03 583.93 230.4C583.12 240.31 581.8 243.97 581.8 243.97H633.54H633.55ZM563.8 213.68C545.07 213.68 533.12 196.55 533.12 172.15C533.12 147.75 546.07 132.21 559.61 132.21C573.15 132.21 583.22 144.22 583.86 163.17C584.05 174.26 584.22 184.56 584.34 193.1C584.34 193.1 582.52 213.69 563.79 213.69L563.8 213.68Z"></path>
<path fill="#230937" d="M720.53 96.19V200.61C717.6 205.79 712.2 210.29 702.28 210.29C678.84 210.29 676.61 187 676.61 171.27V117.71C676.61 98.87 677.65 96.2 677.65 96.2H628.09C628.09 96.2 640.55 120.98 640.55 125.87C640.55 130.76 640.33 137.71 640.33 180.13C640.33 222.55 663.07 242.81 690.99 243.97C705.07 244.56 714.52 239.26 720.52 233.81V262.22C720.52 293.08 705.83 311.78 681.94 311.78C658.05 311.78 643.1 295.59 649.89 262.37C649.89 262.37 614.79 261.9 612.2 288.78C609.53 316.53 647.51 328.69 676.45 328.69C719.78 328.69 759.03 293.51 759.03 240.08V96.19H720.51H720.53Z"></path>
<path fill="#230937" d="M212.3 323.49L221 312.66C226.56 317.28 232.77 319.71 239.3 319.71C243.49 319.71 245.75 318.2 245.75 315.68V315.51C245.75 313.08 243.9 311.73 236.24 309.89C224.23 307.04 214.96 303.51 214.96 291.42V291.25C214.96 280.34 223.26 272.45 236.8 272.45C246.39 272.45 253.89 275.14 260.01 280.26L252.19 291.76C247.03 287.98 241.39 285.97 236.39 285.97C232.6 285.97 230.75 287.65 230.75 289.75V289.92C230.75 292.61 232.68 293.78 240.5 295.63C253.48 298.57 261.54 302.93 261.54 313.93V314.1C261.54 326.1 252.43 333.24 238.73 333.24C228.74 333.24 219.23 329.97 212.29 323.5L212.3 323.49Z"></path>
<path fill="#230937" d="M302.41 287.73H285.48V273.46H334.97V287.73H318.04V332.22H302.4V287.73H302.41Z"></path>
<path fill="#230937" d="M447.18 273.46H473.4C482.02 273.46 487.99 275.81 491.78 279.84C495.08 283.2 496.78 287.73 496.78 293.52V293.69C496.78 302.67 492.19 308.63 485.17 311.74L497.78 332.22H479.73L471.1 316.27H461.13V332.22H447.19V273.45L447.18 273.46ZM474.56 301.67C479.88 301.67 482.94 298.98 482.94 294.7V294.53C482.94 289.91 479.72 285.97 474.48 285.97H461.12V301.67H474.56Z"></path>
<path fill="#230937" d="M527.67 273.46H573.05V287.31H543.15V296.21H564.3V309.05H543.15V318.37H573.45V332.22H527.67V273.45V273.46Z"></path>
<path fill="#B92032" d="M386.42 270.64C386.65 270.64 386.87 270.62 387.1 270.62C386.88 270.62 386.66 270.62 386.42 270.64Z"></path>
<path fill="#B92032" d="M369.34 284.09C369.34 293.28 380.51 305.04 400.19 305.04C419.87 305.04 417.18 291.77 417.03 290.92C414.76 285.23 410.92 280.34 406.04 276.78C407.9 278.2 411.06 281.14 411.06 284.75C411.06 289.85 405.59 293.35 398.3 293.35C391.01 293.35 380.68 289.11 380.68 281.29C380.68 273.47 393.4 273.92 393.4 277.42C393.4 280.1 389.61 277.79 389.28 280.51C388.95 283.21 394.03 285.09 396.88 285.09C401.23 285.09 403.66 283.24 403.66 279.47C403.66 275.7 396.5 270.63 387.1 270.63C386.87 270.63 386.65 270.64 386.42 270.65C380.06 270.94 369.33 275.23 369.33 284.1L369.34 284.09Z"></path>
<path fill="#B92032" d="M354.88 302.84C354.88 320.63 369.31 335.06 387.1 335.06C395.59 335.06 403.3 331.77 409.06 326.41C407.29 327.9 402.38 331.09 392.75 331.09C379.05 331.09 356.9 322.63 354.88 302.84Z"></path>
<path fill="#B92032" d="M419.23 300.61C419.1 306.29 415.04 314.29 397.77 314.29C380.5 314.29 362.05 301.68 362.05 289.02C362.05 282.53 366.36 278.03 370.55 275.18C365.45 278.24 361.28 282.66 358.52 287.95C357.98 289.07 356.67 292.24 356.67 296.66C356.67 314.67 380.51 325.19 396.82 325.19C404.98 325.19 410.84 322.37 414.65 319.54C417.61 314.67 419.31 308.95 419.31 302.84C419.31 302.09 419.28 301.35 419.22 300.62L419.23 300.61Z"></path>
</svg>
